<?xml version="1.0" encoding="UTF-8" standalone="no"?>
<!DOCTYPE svg PUBLIC "-//W3C//DTD SVG 1.1//EN" "http://www.w3.org/Graphics/SVG/1.1/DTD/svg11.dtd">
<!-- Created with Vectornator (http://vectornator.io/) -->
<svg height="100%" stroke-miterlimit="10" style="fill-rule:nonzero;clip-rule:evenodd;stroke-linecap:round;stroke-linejoin:round;" version="1.1" viewBox="0 0 1000 1000" width="100%" xml:space="preserve" xmlns="http://www.w3.org/2000/svg" xmlns:vectornator="http://vectornator.io" xmlns:xlink="http://www.w3.org/1999/xlink">
<defs/>
<g id="Layer-1" vectornator:layerName="Layer 1">
<path d="M543.781 281.125L454.062 290.094L454.438 470L454.062 470L454.25 561.219L410.875 565.656L410.594 384.844L320.781 393.812L321.344 642.688L404.125 634.438L404.125 634.531L454.344 629.438L454.531 718.875L544.156 710.094L543.875 530.156L544.156 530.156L543.781 281.125ZM792 345.344L702.188 354.344L702.562 535.188L658.344 539.625L658.094 359.344L568.25 368.344L568.812 616.906L658.438 607.844L696.594 603.969L718.062 601.812L718.062 601.719L792.375 594.312L792 345.344ZM297.344 396.969L207.625 405.969L208.062 654.844L297.719 645.938L297.344 396.969Z" fill="#ffffff" fill-rule="nonzero" opacity="1" stroke="none" vectornator:layerName="Curve 1"/>
</g>
</svg>
